<svg width="24.000000" height="24.000000" viewBox="0 0 24 24" fill="none" xmlns="http://www.w3.org/2000/svg">
    <path id="Subtract" d="M12.4023 19.8021C13.8887 19.03 19 16.0123 19 11C19 7.13403 15.8652 4 12 4C8.13477 4 5 7.13403 5 11C5 16.0123 10.1113 19.03 11.5977 19.8021C11.8516 19.9333 12.1484 19.9333 12.4023 19.8021ZM12 8C10.3438 8 9 9.34314 9 11C9 12.6569 10.3438 14 12 14C13.6562 14 15 12.6569 15 11C15 9.34314 13.6562 8 12 8Z" clip-rule="evenodd" fill="#3F523C" fill-opacity="1.000000" fill-rule="evenodd"/>
</svg>
