<svg width="10.274414" height="9.973602" viewBox="0 0 10.2744 9.9736" fill="none" xmlns="http://www.w3.org/2000/svg">
    <defs/>
    <path id="Star 1"
          d="M4.22 2.37C4.56 1.5 4.74 1.07 5.02 1.01C5.09 0.99 5.17 0.99 5.25 1.01C5.53 1.07 5.7 1.5 6.05 2.37C6.25 2.86 6.35 3.11 6.53 3.28C6.58 3.32 6.64 3.36 6.7 3.4C6.91 3.53 7.18 3.55 7.71 3.6C8.62 3.68 9.07 3.72 9.21 3.98C9.24 4.03 9.26 4.09 9.27 4.15C9.31 4.44 8.98 4.74 8.31 5.35L8.13 5.51C7.82 5.8 7.66 5.94 7.57 6.11C7.52 6.22 7.48 6.33 7.47 6.45C7.44 6.65 7.48 6.85 7.58 7.26L7.61 7.41C7.77 8.14 7.85 8.51 7.75 8.69C7.66 8.86 7.49 8.96 7.3 8.97C7.1 8.98 6.81 8.74 6.22 8.26C5.84 7.95 5.64 7.79 5.43 7.73C5.24 7.68 5.03 7.68 4.83 7.73C4.62 7.79 4.43 7.95 4.04 8.26C3.46 8.74 3.17 8.98 2.96 8.97C2.77 8.96 2.61 8.86 2.51 8.69C2.41 8.51 2.49 8.14 2.66 7.41L2.69 7.26C2.78 6.85 2.83 6.65 2.8 6.45C2.78 6.33 2.74 6.22 2.69 6.11C2.6 5.94 2.45 5.8 2.13 5.51L1.95 5.35C1.29 4.74 0.95 4.44 1 4.15C1.01 4.09 1.03 4.03 1.06 3.98C1.19 3.72 1.65 3.68 2.55 3.6C3.08 3.55 3.35 3.53 3.57 3.4C3.63 3.36 3.68 3.32 3.73 3.28C3.92 3.11 4.02 2.86 4.22 2.37Z"
          fill="#FFE600" fill-opacity="1.000000" fill-rule="evenodd"/>
    <path id="Star 1"
          d="M8.13 5.51C7.82 5.8 7.66 5.94 7.57 6.11C7.52 6.22 7.48 6.33 7.47 6.45C7.44 6.65 7.48 6.85 7.58 7.26L7.61 7.41C7.77 8.14 7.85 8.51 7.75 8.69C7.66 8.86 7.49 8.96 7.3 8.97C7.1 8.98 6.81 8.74 6.22 8.26C5.84 7.95 5.64 7.79 5.43 7.73C5.24 7.68 5.03 7.68 4.83 7.73C4.62 7.79 4.43 7.95 4.04 8.26C3.46 8.74 3.17 8.98 2.96 8.97C2.77 8.96 2.61 8.86 2.51 8.69C2.41 8.51 2.49 8.14 2.66 7.41L2.69 7.26C2.78 6.85 2.83 6.65 2.8 6.45C2.78 6.33 2.74 6.22 2.69 6.11C2.6 5.94 2.45 5.8 2.13 5.51L1.95 5.35C1.29 4.74 0.95 4.44 1 4.15C1.01 4.09 1.03 4.03 1.06 3.98C1.19 3.72 1.65 3.68 2.55 3.6C3.08 3.55 3.35 3.53 3.57 3.4C3.63 3.36 3.68 3.32 3.73 3.28C3.92 3.11 4.02 2.86 4.22 2.37C4.56 1.5 4.74 1.07 5.02 1.01C5.09 0.99 5.17 0.99 5.25 1.01C5.53 1.07 5.7 1.5 6.05 2.37C6.25 2.86 6.35 3.11 6.53 3.28C6.58 3.32 6.64 3.36 6.7 3.4C6.91 3.53 7.18 3.55 7.71 3.6C8.62 3.68 9.07 3.72 9.21 3.98C9.24 4.03 9.26 4.09 9.27 4.15C9.31 4.44 8.98 4.74 8.31 5.35L8.13 5.51Z"
          stroke="#FFE600" stroke-opacity="1.000000" stroke-width="2.000000"/>
</svg>
