<svg width="18.000000" height="18.000000" viewBox="0 0 18 18" fill="none" xmlns="http://www.w3.org/2000/svg">
    <defs/>
    <path id="Vector" d="M15.8 3.92C14.59 3.8 13.38 3.71 12.17 3.64L12.17 3.63L12 2.66C11.89 1.97 11.73 0.93 9.97 0.93L8 0.93C6.26 0.93 6.09 1.92 5.97 2.65L5.82 3.61C5.12 3.66 4.42 3.7 3.72 3.77L2.19 3.92C1.88 3.95 1.65 4.22 1.68 4.53C1.71 4.84 1.98 5.06 2.3 5.04L3.83 4.89C7.76 4.5 11.72 4.65 15.69 5.04C15.72 5.04 15.73 5.04 15.75 5.04C16.04 5.04 16.29 4.82 16.32 4.53C16.34 4.22 16.11 3.95 15.8 3.92Z" fill="#A5A5A5" fill-opacity="1.000000" fill-rule="nonzero"/>
    <path id="Vector" d="M14.42 6.1C14.24 5.91 13.99 5.81 13.74 5.81L4.25 5.81C4 5.81 3.75 5.91 3.57 6.1C3.4 6.29 3.3 6.54 3.32 6.81L3.78 14.5C3.86 15.64 3.97 17.06 6.59 17.06L11.4 17.06C14.02 17.06 14.12 15.65 14.21 14.5L14.67 6.81C14.69 6.54 14.59 6.29 14.42 6.1ZM10.24 13.31L7.74 13.31C7.43 13.31 7.18 13.05 7.18 12.75C7.18 12.44 7.43 12.18 7.74 12.18L10.24 12.18C10.55 12.18 10.8 12.44 10.8 12.75C10.8 13.05 10.55 13.31 10.24 13.31ZM10.87 10.31L7.12 10.31C6.81 10.31 6.56 10.05 6.56 9.75C6.56 9.44 6.81 9.18 7.12 9.18L10.87 9.18C11.18 9.18 11.43 9.44 11.43 9.75C11.43 10.05 11.18 10.31 10.87 10.31Z" fill="#A5A5A5" fill-opacity="1.000000" fill-rule="nonzero"/>
    <g opacity="0.000000"/>
</svg>
