<svg width="183.000000" height="73.818604" viewBox="0 0 183 73.8186" fill="none" xmlns="http://www.w3.org/2000/svg" xmlns:xlink="http://www.w3.org/1999/xlink">
    <desc>
        Created with Pixso.
    </desc>
    <defs/>
    <path id="EasyStay" d="M91.07 44.51Q92.52 45.12 94.28 45.73L95.96 46.28Q97.12 46.68 97.75 47.1Q98.05 47.29 98.21 47.56Q98.4 47.89 98.4 48.32Q98.4 48.51 98.36 48.68Q98.21 49.26 97.6 49.73Q96.8 50.33 94.83 50.33Q92.91 50.33 91.29 49.69Q89.68 49.05 88.55 48.17Q87.75 48.61 87.07 49.43Q86.85 49.69 86.71 49.99Q86.4 50.62 86.4 51.4Q86.4 52.07 86.63 52.64Q86.79 53.03 87.05 53.38Q87.71 54.24 88.9 54.83Q90.08 55.4 91.65 55.71Q93.23 56.01 95.08 56.01Q100.27 56.01 102.95 53.91Q104.31 52.84 104.98 51.44Q105.64 50.08 105.64 48.4Q105.64 46.08 104.57 44.47Q104.17 43.86 103.61 43.35Q101.59 41.49 97.83 40.29L95.71 39.6Q94.68 39.28 94.15 38.91Q93.85 38.69 93.73 38.4Q93.63 38.18 93.63 37.92Q93.63 37.73 93.69 37.55Q93.85 37.03 94.47 36.66Q95.31 36.17 97.12 36.17Q98.88 36.17 100.35 36.59Q101.84 37.01 102.72 37.56Q102.89 37.43 103.06 37.28Q103.52 36.85 103.88 36.3Q103.9 36.27 103.91 36.25Q104.36 35.52 104.36 34.52Q104.36 33.85 104.1 33.29Q103.96 32.98 103.75 32.71Q103.15 31.93 102.09 31.43Q101.04 30.92 99.55 30.69Q98.08 30.44 96.36 30.44Q91.63 30.44 89.01 32.48Q87.79 33.44 87.13 34.7Q86.4 36.12 86.4 37.92Q86.4 39.68 86.97 40.9Q87.26 41.49 87.64 42Q88.06 42.55 88.59 43Q89.64 43.88 91.07 44.51ZM3.26 32.51Q2.59 33.44 2.59 34.85L2.59 51.76Q2.59 53.16 3.26 54.09Q3.41 54.3 3.59 54.49Q3.77 54.67 3.98 54.82Q4.91 55.48 6.31 55.48L17.99 55.48Q18.82 55.48 19.39 55.1Q19.57 54.98 19.73 54.83Q20.4 54.16 20.4 52.64Q20.4 51.86 20.18 51.15Q20.18 51.14 20.17 51.13Q19.96 50.4 19.67 49.96L9.4 49.96L9.4 45.77L16.75 45.77Q17.63 45.77 18.21 45.35Q18.35 45.25 18.47 45.13Q19.12 44.49 19.12 42.96Q19.12 42.16 18.89 41.47Q18.68 40.77 18.39 40.33L9.4 40.33L9.4 36.6L17.84 36.6Q18.67 36.6 19.25 36.23Q19.42 36.12 19.58 35.97Q20.24 35.33 20.24 33.8Q20.24 33 20.01 32.29Q19.8 31.57 19.52 31.13L6.31 31.13Q4.93 31.13 4.01 31.78Q3.78 31.94 3.59 32.13Q3.41 32.31 3.26 32.51ZM116.12 49.95Q115.71 49.5 115.71 48.68L115.71 42.64L119.36 42.64Q120.19 42.64 120.75 42.25Q120.89 42.15 121.02 42.02Q121.64 41.4 121.64 40Q121.64 39.2 121.42 38.55Q121.19 37.88 120.96 37.44L115.71 37.44L115.71 34.89Q115.71 32.95 114.8 32.31Q114.77 32.29 114.74 32.27Q113.76 31.64 111.99 31.64Q111.07 31.64 110.25 31.79Q109.43 31.93 108.99 32.04L108.99 49.16Q108.99 52.59 110.7 54.2Q110.79 54.29 110.89 54.37Q112.79 55.96 116.32 55.96Q119.2 55.96 120.33 55Q120.87 54.55 121.15 53.98Q121.47 53.33 121.47 52.52Q121.47 51.76 121.21 51.22Q120.96 50.69 120.6 50.25Q120.12 50.4 119.47 50.51Q118.84 50.61 118.23 50.61Q117.03 50.61 116.37 50.17Q116.23 50.07 116.12 49.95ZM61.4 52.62Q62.15 51.3 62.15 49.56Q62.15 48 61.48 46.8Q61.11 46.14 60.53 45.59Q58.92 44.05 55.07 43.17L53.83 42.88Q52.72 42.64 52.32 42.37Q52.07 42.19 51.97 41.95Q51.92 41.81 51.92 41.64Q51.92 41.43 52 41.25Q52.16 40.91 52.63 40.71Q53.35 40.4 54.67 40.4Q55.32 40.4 56.1 40.53Q56.88 40.65 57.63 40.83Q58.39 41.01 59.03 41.23Q59.67 41.45 59.99 41.64Q60.51 41.2 60.85 40.55Q61.19 39.89 61.19 38.97Q61.19 38.32 60.94 37.8Q60.82 37.54 60.63 37.31Q60.07 36.6 59.11 36.17Q58.16 35.73 56.86 35.51Q55.56 35.29 54.08 35.29Q52.11 35.29 50.49 35.73Q48.87 36.17 47.71 36.97Q46.98 37.47 46.45 38.14Q46.15 38.53 45.91 38.97Q45.81 39.16 45.73 39.35Q45.28 40.4 45.28 41.64Q45.28 43.73 46.28 45.08Q46.58 45.49 46.98 45.83Q48.68 47.29 52.15 47.96L53.35 48.21Q54.48 48.4 54.95 48.72Q55.21 48.9 55.33 49.14Q55.43 49.35 55.43 49.6Q55.43 49.78 55.37 49.94Q55.24 50.32 54.77 50.57Q54.11 50.92 52.87 50.92Q50.91 50.92 49.41 50.42Q47.91 49.93 46.75 49.28Q46.19 49.72 45.79 50.38Q45.39 51.05 45.39 52.01Q45.39 52.73 45.67 53.31Q45.79 53.57 45.97 53.8Q46.56 54.56 47.57 55.06Q48.6 55.56 50.03 55.8Q51.48 56.05 53.16 56.05Q57.59 56.05 59.87 54.33Q60.84 53.59 61.4 52.62ZM35.93 35.77Q34.15 35.33 31.99 35.33Q30.6 35.33 29.01 35.53Q27.43 35.73 26.27 36.17Q25.24 36.6 24.74 37.23Q24.24 37.85 24.24 38.88Q24.24 39.18 24.29 39.46Q24.37 39.96 24.59 40.42Q24.95 41.17 25.48 41.53Q26.63 41.05 28.07 40.73Q29.51 40.4 31.04 40.4Q32.95 40.4 33.97 40.9Q34.46 41.14 34.72 41.54Q34.99 41.96 34.99 42.56L34.99 42.85L29.76 43.4Q26.32 43.76 24.68 45.25Q24.38 45.52 24.14 45.83Q23.04 47.22 23.04 49.49Q23.04 51.13 23.69 52.37Q23.92 52.8 24.22 53.18Q24.78 53.89 25.58 54.41Q26.8 55.21 28.5 55.61Q30.2 56.01 32.32 56.01Q37.03 56.01 39.64 54.45Q40.43 53.97 41.01 53.3Q41.12 53.17 41.22 53.02Q41.59 52.43 41.59 51.6L41.59 42.64Q41.59 40.77 40.91 39.39Q40.58 38.72 40.12 38.16Q39.62 37.57 38.98 37.1Q37.72 36.2 35.93 35.77ZM136.85 35.77Q135.07 35.33 132.91 35.33Q131.52 35.33 129.94 35.53Q128.35 35.73 127.19 36.17Q126.16 36.6 125.66 37.23Q125.16 37.85 125.16 38.88Q125.16 39.18 125.21 39.46Q125.29 39.96 125.51 40.42Q125.87 41.17 126.4 41.53Q127.55 41.05 128.99 40.73Q130.43 40.4 131.96 40.4Q133.87 40.4 134.89 40.9Q135.38 41.14 135.64 41.54Q135.91 41.96 135.91 42.56L135.91 42.85L130.68 43.4Q127.24 43.76 125.6 45.25Q125.3 45.52 125.06 45.83Q123.96 47.22 123.96 49.49Q123.96 51.13 124.61 52.37Q124.84 52.8 125.14 53.18Q125.7 53.89 126.5 54.41Q127.72 55.21 129.42 55.61Q131.12 56.01 133.24 56.01Q137.95 56.01 140.56 54.45Q141.35 53.97 141.93 53.3Q142.05 53.17 142.14 53.02Q142.51 52.43 142.51 51.6L142.51 42.64Q142.51 40.77 141.83 39.39Q141.5 38.72 141.04 38.16Q140.54 37.57 139.9 37.1Q138.64 36.2 136.85 35.77ZM66.93 48.17Q67.43 49.41 67.87 50.4Q68.79 52.44 69.57 53.19Q70.35 53.93 71.04 54.12Q69.99 55.4 68.71 56.62Q67.43 57.85 66.15 58.84Q66.31 60.05 66.94 60.92Q67.14 61.2 67.39 61.44Q67.65 61.69 67.95 61.87Q68.85 62.44 70.12 62.44Q71.06 62.44 71.93 62.19Q71.94 62.18 71.95 62.18Q72.83 61.93 73.71 61.22Q74.59 60.52 75.55 59.28Q76.51 58.04 77.64 56.09Q78.31 54.93 79.03 53.47Q79.76 52.01 80.43 50.36Q81.11 48.72 81.73 47.02Q82.35 45.33 82.81 43.72Q83.27 42.12 83.56 40.71Q83.84 39.28 83.84 38.21Q83.84 37.02 83.25 36.4Q83.1 36.25 82.91 36.13Q81.99 35.52 80.6 35.52Q79.36 35.52 78.27 35.91Q77.84 36.07 77.43 36.28Q77.16 37.92 76.78 39.62Q76.4 41.32 75.96 43.02Q75.52 44.72 75.05 46.32Q74.59 47.92 74.11 49.28L73.96 49.28L70.79 38.28Q70.35 36.68 69.43 36.11Q68.52 35.52 67.11 35.52Q66.1 35.52 65.23 35.87Q65.14 35.9 65.05 35.94Q64.11 36.36 63.56 36.93Q64.19 39.6 64.77 41.66Q65.35 43.72 65.89 45.33Q66.44 46.93 66.93 48.17ZM148.3 48.17Q148.79 49.41 149.23 50.4Q150.15 52.44 150.93 53.19Q151.71 53.93 152.4 54.12Q151.35 55.4 150.07 56.62Q148.79 57.85 147.51 58.84Q147.67 60.05 148.3 60.92Q148.5 61.2 148.75 61.44Q149.01 61.69 149.31 61.87Q150.21 62.44 151.48 62.44Q152.42 62.44 153.29 62.19L153.31 62.18Q154.19 61.93 155.07 61.22Q155.95 60.52 156.91 59.28Q157.88 58.04 159 56.09Q159.67 54.93 160.39 53.47Q161.12 52.01 161.79 50.36Q162.47 48.72 163.09 47.02Q163.72 45.33 164.17 43.72Q164.63 42.12 164.92 40.71Q165.2 39.28 165.2 38.21Q165.2 37.02 164.61 36.4Q164.46 36.25 164.27 36.13Q163.35 35.52 161.96 35.52Q160.72 35.52 159.63 35.91Q159.2 36.07 158.79 36.28Q158.52 37.92 158.14 39.62Q157.76 41.32 157.32 43.02Q156.88 44.72 156.41 46.32Q155.95 47.92 155.47 49.28L155.32 49.28L152.15 38.28Q151.71 36.68 150.8 36.11Q149.88 35.52 148.47 35.52Q147.46 35.52 146.59 35.87Q146.5 35.9 146.41 35.94Q145.47 36.36 144.92 36.93Q145.55 39.6 146.13 41.66Q146.71 43.72 147.25 45.33Q147.8 46.93 148.3 48.17ZM33.82 50.91Q33 51.05 32.32 51.05Q30.83 51.05 30.21 50.55Q29.9 50.3 29.75 49.98Q29.59 49.65 29.59 49.24Q29.59 48.87 29.75 48.58Q29.93 48.25 30.31 48.04Q31.04 47.64 32.16 47.56L35.03 47.33L35.03 50.52Q34.64 50.77 33.82 50.91ZM134.74 50.91Q133.92 51.05 133.24 51.05Q131.75 51.05 131.13 50.55Q130.82 50.3 130.67 49.98Q130.51 49.65 130.51 49.24Q130.51 48.87 130.67 48.58Q130.85 48.25 131.23 48.04Q131.96 47.64 133.08 47.56L135.95 47.33L135.95 50.52Q135.56 50.77 134.74 50.91Z" fill="#FFFFFF" fill-opacity="1.000000" fill-rule="evenodd"/>
    <path id="Vector 4" d="M32.1 40.23L32.1 40.26C31.36 41.12 30.12 41.24 29.29 40.52C28.46 39.79 28.39 38.55 29.14 37.69L29.16 37.68L32.1 40.23ZM176.96 31.25L176.99 31.26C177.73 32.07 177.65 33.32 176.81 34.1C175.97 34.87 174.73 34.83 174 34.01L174 33.98L176.96 31.25Z" fill="#FFFFFF" fill-opacity="1.000000" fill-rule="nonzero"/>
    <path id="Vector 4" d="M30.62 38.97C55.62 9.95 140.96 -5.85 175.5 32.63" stroke="#FFFFFF" stroke-opacity="1.000000" stroke-width="4.000000" stroke-linecap="round" stroke-dasharray="8 8"/>
    <circle id="Ellipse 8" cx="176.500000" cy="32.638184" r="6.500000" fill="#FFFFFF" fill-opacity="1.000000"/>
    <circle id="Ellipse 8" cx="176.500000" cy="32.638184" r="6.000000" stroke="#FFFFFF" stroke-opacity="1.000000" stroke-width="1.000000"/>
</svg>
