<svg width="24.000000" height="24.000000" viewBox="0 0 24 24" fill="none" xmlns="http://www.w3.org/2000/svg" xmlns:xlink="http://www.w3.org/1999/xlink">
    <desc>
        Created with Pixso.
    </desc>
    <defs/>
    <path id="Rectangle 1" d="M6.5 6.97C6.78 4.15 9.16 2 12 2C14.83 2 17.21 4.15 17.49 6.97L17.78 9.84C17.8 10.01 17.81 10.1 17.82 10.18C17.96 11.37 18.37 12.5 19.01 13.51C19.05 13.58 19.1 13.65 19.2 13.8L19.94 14.92C20.96 16.44 21.46 17.2 21.02 17.45C21.01 17.45 21 17.47 21 17.49C20.71 18 19.91 18 18.3 18L5.69 18C4.08 18 3.28 18 2.99 17.49C2.99 17.47 2.98 17.45 2.97 17.45C2.53 17.2 3.03 16.44 4.05 14.92L4.79 13.8C4.89 13.65 4.94 13.58 4.98 13.51C5.62 12.5 6.03 11.37 6.17 10.18C6.18 10.1 6.19 10.01 6.21 9.84L6.5 6.97Z" fill="#000000" fill-opacity="1.000000" fill-rule="nonzero"/>
    <path id="Ellipse 45" d="M10.06 20.62C10.18 20.74 10.44 20.83 10.78 20.89C11.14 20.96 11.57 21 12 20.99C12.45 21 12.87 20.96 13.21 20.89C13.58 20.82 13.82 20.73 13.93 20.62" stroke="#000000" stroke-opacity="1.000000" stroke-width="2.000000" stroke-linecap="round"/>
</svg>
