<svg width="24.000000" height="24.000000" viewBox="0 0 24 24" fill="none" xmlns="http://www.w3.org/2000/svg">
	<g opacity="0.000000"/>
	<path id="Vector" d="M15.58 12.4L15.58 16.46C15.58 16.83 15.54 17.17 15.46 17.48C15.08 18.95 13.87 19.87 12.19 19.87L9.46 19.87L6.45 21.88C6 22.18 5.4 21.86 5.4 21.31L5.4 19.87C4.37 19.87 3.53 19.53 2.94 18.93C2.33 18.34 2 17.49 2 16.46L2 12.4C2 10.5 3.17 9.18 5 9.02C5.12 9.01 5.25 9 5.4 9L12.19 9C14.23 9 15.58 10.36 15.58 12.4Z" fill="#000000" fill-opacity="1.000000" fill-rule="nonzero"/>
	<path id="Vector" d="M17.75 15.6C19.01 15.6 20.08 15.18 20.83 14.43C21.58 13.68 22 12.62 22 11.35L22 6.25C22 3.9 20.09 2 17.75 2L9.25 2C6.9 2 5 3.9 5 6.25L5 7C5 7.28 5.21 7.5 5.5 7.5L12.19 7.5C14.9 7.5 17.08 9.68 17.08 12.4L17.08 15.1C17.08 15.38 17.3 15.6 17.58 15.6L17.75 15.6Z" fill="#000000" fill-opacity="1.000000" fill-rule="nonzero"/>
</svg>
