<svg width="171.000000" height="171.000000" viewBox="0 0 171 171" fill="none" xmlns="http://www.w3.org/2000/svg">
    <g clip-path="url(#clip334_3490)">
        <path id="Vector" d="M151.66 55.01L127.34 55.01L110.36 24.32C109.91 23.5 109.06 23 108.13 23L62.21 23C61.27 23 60.41 23.51 59.97 24.33L43.29 55.01L18.73 55.01C17.31 55.01 16.17 56.15 16.17 57.57L16.17 144.83C16.17 146.25 17.31 147.39 18.73 147.39L151.66 147.39C153.07 147.39 154.22 146.25 154.22 144.83L154.22 57.57C154.22 56.15 153.07 55.01 151.66 55.01ZM149.11 142.28L21.28 142.28L21.28 60.12L44.81 60.12C45.75 60.12 46.61 59.61 47.06 58.79L63.73 28.11L106.62 28.11L123.6 58.8C124.05 59.62 124.9 60.12 125.83 60.12L149.1 60.12L149.1 142.28L149.11 142.28Z" fill="#515151" fill-opacity="1.000000" fill-rule="nonzero"/>
        <path id="Vector" d="M85.21 50.79C62.45 50.79 43.95 69.3 43.95 92.05C43.95 114.79 62.45 133.3 85.21 133.3C107.94 133.3 126.43 114.79 126.43 92.05C126.43 69.3 107.94 50.79 85.21 50.79ZM85.21 128.18C65.27 128.18 49.06 111.97 49.06 92.05C49.06 72.12 65.27 55.9 85.21 55.9C105.12 55.9 121.32 72.12 121.32 92.05C121.32 111.97 105.12 128.18 85.21 128.18Z" fill="#515151" fill-opacity="1.000000" fill-rule="nonzero"/>
        <path id="Vector" d="M85.19 66.28C70.99 66.28 59.43 77.84 59.43 92.05C59.43 106.25 70.99 117.8 85.19 117.8C99.38 117.8 110.92 106.25 110.92 92.05C110.92 77.84 99.38 66.28 85.19 66.28ZM85.19 112.69C73.81 112.69 64.54 103.43 64.54 92.05C64.54 80.66 73.81 71.39 85.19 71.39C96.56 71.39 105.81 80.66 105.81 92.05C105.81 103.43 96.56 112.69 85.19 112.69Z" fill="#515151" fill-opacity="1.000000" fill-rule="nonzero"/>
    </g>
</svg>
