<svg width="100.352539" height="100.353027" viewBox="0 0 100.353 100.353" fill="none" xmlns="http://www.w3.org/2000/svg">
    <path id="Vector" d="M88.79 32.91L80.49 7.99C80.29 7.38 79.71 6.97 79.07 6.97L20.92 6.97C20.28 6.97 19.71 7.38 19.5 7.99L11.2 32.91C11.15 33.06 11.12 33.22 11.12 33.38L11.12 91.52C11.12 92.35 11.79 93.02 12.62 93.02L87.37 93.02C88.2 93.02 88.87 92.35 88.87 91.52L88.87 33.38C88.87 33.22 88.85 33.06 88.79 32.91ZM85.49 32.49C82.42 34.74 78.98 35.8 74.74 35.8C70.9 35.8 67.19 34.61 63.96 32.37L63.96 9.97L77.99 9.97L85.49 32.49ZM39.04 9.97L60.95 9.97L60.95 32.37C57.72 34.61 54.02 35.81 50.17 35.81C46.19 35.81 42.35 34.51 39.04 32.09L39.04 9.97ZM22.01 9.97L36.04 9.97L36.04 32.09C32.72 34.51 28.89 35.81 24.9 35.81C21.14 35.81 17.55 34.72 14.44 32.67L22.01 9.97ZM14.12 90.02L14.12 35.98C17.4 37.83 21.07 38.81 24.9 38.81C29.42 38.81 33.77 37.4 37.54 34.73C41.31 37.4 45.65 38.81 50.17 38.81C54.55 38.81 58.77 37.49 62.46 34.99C66.14 37.49 70.36 38.81 74.74 38.81C78.97 38.81 82.63 37.82 85.87 35.84L85.87 90.02L14.12 90.02Z" fill="#3F523C" fill-opacity="1.000000" fill-rule="nonzero"/>
    <path id="Vector" d="M64.8 45.88L35.19 45.88C34.36 45.88 33.69 46.55 33.69 47.38L33.69 74.91C33.69 75.74 34.36 76.41 35.19 76.41L64.8 76.41C65.63 76.41 66.3 75.74 66.3 74.91L66.3 47.38C66.3 46.55 65.63 45.88 64.8 45.88ZM36.69 48.88L48.65 48.88L48.65 73.41L36.69 73.41L36.69 48.88ZM63.3 73.41L51.65 73.41L51.65 48.88L63.3 48.88L63.3 73.41L63.3 73.41Z" fill="#3F523C" fill-opacity="1.000000" fill-rule="nonzero"/>
</svg>
