<svg width="88.112305" height="82.332031" viewBox="0 0 88.1123 82.332" fill="none" xmlns="http://www.w3.org/2000/svg">
    <path id="Vector" d="M83.97 39.81C83.76 39.19 83.19 38.78 82.55 38.78L54.16 38.78C53.52 38.78 52.94 39.19 52.74 39.81L51.61 43.2L51.61 18.15L54.67 18.15C55.5 18.15 56.17 17.47 56.17 16.65L56.17 8.6C56.17 7.77 55.5 7.1 54.67 7.1L50.26 7.1L50.26 1.5C50.26 0.67 49.59 0 48.76 0L7.41 0C6.58 0 5.91 0.67 5.91 1.5L5.91 7.1L1.5 7.1C0.67 7.1 0 7.77 0 8.6L0 16.65C0 17.47 0.67 18.15 1.5 18.15L4.32 18.15L4.32 80.83C4.32 81.66 4.99 82.33 5.82 82.33L50.11 82.33L86.6 82.33C87.43 82.33 88.1 81.66 88.1 80.83L88.1 52.69C88.28 52.21 83.97 39.81 83.97 39.81ZM84.76 51.68C83.46 52.45 81.99 52.86 80.43 52.86C78.84 52.86 77.31 52.38 75.94 51.51L75.94 41.78L81.46 41.78L84.76 51.68ZM63.78 41.78L72.94 41.78L72.94 51.51C71.57 52.38 70.03 52.86 68.44 52.86C66.78 52.86 65.18 52.36 63.78 51.42L63.78 41.78ZM55.24 41.78L60.77 41.78L60.77 51.42C59.36 52.36 57.76 52.86 56.1 52.86C54.61 52.86 53.19 52.46 51.92 51.75L55.24 41.78ZM8.91 3L47.27 3L47.27 7.1L8.91 7.1L8.91 3ZM3 10.1L7.41 10.1L48.77 10.1L53.17 10.1L53.17 15.15L50.11 15.15L5.82 15.15L3 15.15L3 10.1ZM7.32 18.15L48.61 18.15L48.61 79.33L7.32 79.33L7.32 18.15ZM51.61 79.33L51.61 54.95C53.02 55.55 54.54 55.86 56.1 55.86C58.29 55.86 60.41 55.23 62.27 54.03C64.13 55.23 66.25 55.86 68.44 55.86C70.56 55.86 72.62 55.27 74.44 54.15C76.26 55.27 78.31 55.86 80.43 55.86C82.05 55.86 83.64 55.51 85.1 54.87L85.1 79.33L51.61 79.33Z" fill="#3F523C" fill-opacity="1.000000" fill-rule="nonzero"/>
    <path id="Vector" d="M34.67 25.9L21.51 25.9C20.68 25.9 20.01 26.57 20.01 27.4L20.01 59.28C20.01 60.1 20.68 60.78 21.51 60.78L34.67 60.78C35.5 60.78 36.17 60.1 36.17 59.28L36.17 27.4C36.17 26.57 35.5 25.9 34.67 25.9ZM33.17 57.78L23.01 57.78L23.01 28.9L33.17 28.9L33.17 57.78Z" fill="#3F523C" fill-opacity="1.000000" fill-rule="nonzero"/>
</svg>
