<svg width="85.740234" height="79.938110" viewBox="0 0 85.7402 79.9381" fill="none" xmlns="http://www.w3.org/2000/svg">
    <path id="Vector" d="M85.21 36.09L43.39 0.36C42.83 -0.13 41.99 -0.12 41.44 0.36L0.51 35.97C-0.11 36.51 -0.18 37.46 0.36 38.09C0.91 38.71 1.86 38.78 2.48 38.23L11.3 30.56L11.3 78.43C11.3 79.26 11.97 79.93 12.8 79.93L71.4 79.93C72.23 79.93 72.9 79.26 72.9 78.43L72.9 29.52L83.26 38.37C83.54 38.61 83.89 38.73 84.23 38.73C84.66 38.73 85.08 38.55 85.38 38.21C85.91 37.58 85.84 36.63 85.21 36.09ZM69.9 76.93L14.3 76.93L14.3 27.95L42.43 3.48L69.9 26.96L69.9 76.93Z" fill="#3F523C" fill-opacity="1.000000" fill-rule="nonzero"/>
    <path id="Vector" d="M26.31 33.29L26.31 62.07C26.31 62.9 26.99 63.57 27.81 63.57L56.59 63.57C57.42 63.57 58.09 62.9 58.09 62.07L58.09 33.29C58.09 32.46 57.42 31.79 56.59 31.79L27.81 31.79C26.99 31.79 26.31 32.46 26.31 33.29ZM43.81 60.57L43.81 49.18L55.09 49.18L55.09 60.57L43.81 60.57ZM55.09 46.18L43.81 46.18L43.81 34.79L55.09 34.79L55.09 46.18L55.09 46.18ZM29.31 34.79L40.81 34.79L40.81 47.13C40.74 47.3 40.7 47.49 40.7 47.68C40.7 47.88 40.74 48.07 40.81 48.24L40.81 60.57L29.31 60.57L29.31 34.79Z" fill="#3F523C" fill-opacity="1.000000" fill-rule="nonzero"/>
</svg>
