<svg width="13.000000" height="13.000000" viewBox="0 0 13 13" fill="none" xmlns="http://www.w3.org/2000/svg">
    <path id="Star 1" d="M5.58 3.91C5.93 3.04 6.1 2.61 6.38 2.55C6.46 2.53 6.53 2.53 6.61 2.55C6.89 2.61 7.06 3.04 7.41 3.91C7.61 4.4 7.71 4.65 7.89 4.81C7.95 4.86 8 4.9 8.06 4.94C8.28 5.07 8.54 5.09 9.08 5.14C9.98 5.22 10.43 5.26 10.57 5.52C10.6 5.57 10.62 5.63 10.63 5.69C10.67 5.98 10.34 6.28 9.68 6.88L9.49 7.05C9.18 7.34 9.03 7.48 8.94 7.65C8.88 7.76 8.85 7.87 8.83 7.99C8.8 8.19 8.85 8.39 8.94 8.8L8.97 8.95C9.13 9.68 9.22 10.05 9.11 10.23C9.02 10.39 8.85 10.5 8.67 10.51C8.46 10.52 8.17 10.28 7.58 9.8C7.2 9.49 7.01 9.33 6.79 9.27C6.6 9.22 6.39 9.22 6.2 9.27C5.98 9.33 5.79 9.49 5.41 9.8C4.82 10.28 4.53 10.52 4.32 10.51C4.14 10.5 3.97 10.39 3.88 10.23C3.78 10.05 3.86 9.68 4.02 8.95L4.05 8.8C4.14 8.39 4.19 8.19 4.16 7.99C4.14 7.87 4.11 7.76 4.05 7.65C3.96 7.48 3.81 7.34 3.5 7.05L3.31 6.88C2.65 6.28 2.32 5.98 2.36 5.69C2.37 5.63 2.39 5.57 2.42 5.52C2.56 5.26 3.01 5.22 3.91 5.14C4.45 5.09 4.71 5.07 4.93 4.94C4.99 4.9 5.04 4.86 5.1 4.81C5.28 4.65 5.38 4.4 5.58 3.91Z" fill="#FFE600" fill-opacity="1.000000" fill-rule="evenodd"/>
    <path id="Star 1" d="M9.49 7.05C9.18 7.34 9.03 7.48 8.94 7.65C8.88 7.76 8.85 7.87 8.83 7.99C8.8 8.19 8.85 8.39 8.94 8.8L8.97 8.95C9.13 9.68 9.22 10.05 9.11 10.23C9.02 10.39 8.85 10.5 8.67 10.51C8.46 10.52 8.17 10.28 7.58 9.8C7.2 9.49 7.01 9.33 6.79 9.27C6.6 9.22 6.39 9.22 6.2 9.27C5.98 9.33 5.79 9.49 5.41 9.8C4.82 10.28 4.53 10.52 4.32 10.51C4.14 10.5 3.97 10.39 3.88 10.23C3.78 10.05 3.86 9.68 4.02 8.95L4.05 8.8C4.14 8.39 4.19 8.19 4.16 7.99C4.14 7.87 4.11 7.76 4.05 7.65C3.96 7.48 3.81 7.34 3.5 7.05L3.31 6.88C2.65 6.28 2.32 5.98 2.36 5.69C2.37 5.63 2.39 5.57 2.42 5.52C2.56 5.26 3.01 5.22 3.91 5.14C4.45 5.09 4.71 5.07 4.93 4.94C4.99 4.9 5.04 4.86 5.1 4.81C5.28 4.65 5.38 4.4 5.58 3.91C5.93 3.04 6.1 2.61 6.38 2.55C6.46 2.53 6.53 2.53 6.61 2.55C6.89 2.61 7.06 3.04 7.41 3.91C7.61 4.4 7.71 4.65 7.89 4.81C7.95 4.86 8 4.9 8.06 4.94C8.28 5.07 8.54 5.09 9.08 5.14C9.98 5.22 10.43 5.26 10.57 5.52C10.6 5.57 10.62 5.63 10.63 5.69C10.67 5.98 10.34 6.28 9.68 6.88L9.49 7.05Z" stroke="#FFE600" stroke-opacity="1.000000" stroke-width="2.000000"/>
</svg>
