<svg width="24.000000" height="24.000000" viewBox="0 0 24 24" fill="none" xmlns="http://www.w3.org/2000/svg">
    <rect id="vuesax/bold/trash" rx="-0.500000" width="23.000000" height="23.000000" transform="translate(0.500000 0.500000)" fill="#FFFFFF" fill-opacity="0"/>
    <path id="Vector" d="M21.06 5.22C19.45 5.07 17.84 4.94 16.22 4.86L16.22 4.85L16 3.55C15.85 2.62 15.63 1.25 13.29 1.25L10.67 1.25C8.34 1.25 8.12 2.57 7.96 3.54L7.75 4.82C6.83 4.87 5.89 4.93 4.96 5.03L2.92 5.22C2.5 5.27 2.2 5.63 2.25 6.05C2.29 6.45 2.64 6.76 3.06 6.71L5.1 6.52C10.34 6 15.62 6.19 20.92 6.72C20.96 6.72 20.97 6.72 21 6.72C21.38 6.72 21.71 6.43 21.75 6.05C21.79 5.63 21.48 5.27 21.06 5.22Z" fill="#292D32" fill-opacity="1.000000" fill-rule="nonzero"/>
    <path id="Vector" d="M19.22 8.13C18.99 7.88 18.66 7.75 18.31 7.75L5.67 7.75C5.33 7.75 5 7.88 4.76 8.13C4.54 8.38 4.41 8.72 4.42 9.08L5.04 19.34C5.16 20.86 5.29 22.76 8.79 22.76L15.21 22.76C18.7 22.76 18.83 20.87 18.95 19.34L19.56 9.09C19.58 8.72 19.45 8.38 19.22 8.13ZM13.66 17.75L10.33 17.75C9.91 17.75 9.58 17.4 9.58 17C9.58 16.59 9.91 16.25 10.33 16.25L13.66 16.25C14.06 16.25 14.41 16.59 14.41 17C14.41 17.4 14.06 17.75 13.66 17.75ZM14.5 13.75L9.5 13.75C9.08 13.75 8.75 13.4 8.75 13C8.75 12.59 9.08 12.25 9.5 12.25L14.5 12.25C14.91 12.25 15.25 12.59 15.25 13C15.25 13.4 14.91 13.75 14.5 13.75Z" fill="#292D32" fill-opacity="1.000000" fill-rule="nonzero"/>
    <g opacity="0.000000"/>
</svg>
