<svg width="100" height="101" viewBox="0 0 100 101" fill="none" xmlns="http://www.w3.org/2000/svg">
    <path d="M83.3471 16.6541H16.6531C15.8241 16.6541 15.1531 17.3251 15.1531 18.1541V46.3791C15.1531 47.2081 15.8241 47.8791 16.6531 47.8791H21.7961V82.8461C21.7961 83.6741 22.4671 84.3461 23.2961 84.3461H77.3421C78.1701 84.3461 78.8421 83.6741 78.8421 82.8461V47.8791H83.3471C84.1751 47.8791 84.8471 47.2081 84.8471 46.3791V18.1541C84.8471 17.3251 84.1751 16.6541 83.3471 16.6541ZM75.8421 81.3461H24.7961V47.8791H40.9081C41.4091 47.8791 41.8781 47.6291 42.1561 47.2111L50.3191 34.9701L58.4821 47.2111C58.7601 47.6281 59.2291 47.8791 59.7301 47.8791H75.8411V81.3461H75.8421ZM81.8471 44.8791H60.5331L51.5671 31.4341C51.0101 30.5991 49.6271 30.6001 49.0711 31.4341L40.1051 44.8791H18.1531V19.6541H81.8471V44.8791Z" fill="#3F523C"/>
    <path d="M57.2351 52.8811H43.4031C42.5741 52.8811 41.9031 53.5531 41.9031 54.3811V75.1351C41.9031 75.9631 42.5741 76.6351 43.4031 76.6351H57.2361C58.0641 76.6351 58.7361 75.9631 58.7361 75.1351V54.3811C58.7351 53.5531 58.0631 52.8811 57.2351 52.8811ZM55.7351 73.6351H44.9031V55.8811H55.7361V73.6351H55.7351Z" fill="#3F523C"/>
</svg>
