<svg width="102" height="101" viewBox="0 0 102 101" fill="none" xmlns="http://www.w3.org/2000/svg">
    <path d="M75.6835 11.3824H28.3495C22.0125 11.3824 16.8515 16.4754 16.7215 22.7824C16.7185 22.8224 16.7095 22.8604 16.7095 22.9004C16.7095 22.9134 16.7125 22.9254 16.7135 22.9384C16.7135 22.9674 16.7095 22.9954 16.7095 23.0244V78.5874C16.7095 79.4155 17.3805 80.0874 18.2095 80.0874H24.7705V86.9894C24.7705 87.8175 25.4415 88.4894 26.2705 88.4894C27.0995 88.4894 27.7705 87.8175 27.7705 86.9894V80.0874H75.0495V86.9894C75.0495 87.8175 75.7215 88.4894 76.5495 88.4894C77.3775 88.4894 78.0495 87.8175 78.0495 86.9894V80.0874H85.8235C86.6515 80.0874 87.3235 79.4155 87.3235 78.5874V23.0234C87.3235 16.6054 82.1015 11.3824 75.6835 11.3824ZM61.4275 51.3824C60.6805 46.9464 56.8255 43.5534 52.1825 43.5534C47.5295 43.5534 43.6665 46.9594 42.9305 51.4074L19.7105 51.4384V24.3964L84.3235 24.3094V51.3514L61.4275 51.3824ZM58.3675 51.3874L45.9875 51.4044C46.6795 48.6235 49.1895 46.5544 52.1815 46.5544C55.1655 46.5534 57.6705 48.6144 58.3675 51.3874ZM28.3495 14.3824H75.6835C79.8605 14.3824 83.3535 17.3634 84.1515 21.3094L19.8675 21.3954C20.6325 17.4074 24.1415 14.3824 28.3495 14.3824ZM19.7095 77.0874V54.4384L43.9685 54.4054C44.0735 54.4284 44.1815 54.4434 44.2935 54.4434C44.4065 54.4434 44.5155 54.4284 44.6215 54.4054L59.6755 54.3854C59.8015 54.4194 59.9315 54.4444 60.0685 54.4444C60.2065 54.4444 60.3375 54.4194 60.4645 54.3844L84.3245 54.3524V77.0874H19.7095Z" fill="#3F523C"/>
    <path d="M30.7985 59.2885C27.0375 59.2885 23.9775 62.3485 23.9775 66.1085C23.9775 69.8705 27.0375 72.9295 30.7985 72.9295C34.5595 72.9295 37.6195 69.8695 37.6195 66.1085C37.6195 62.3485 34.5595 59.2885 30.7985 59.2885ZM30.7985 69.9305C28.6915 69.9305 26.9775 68.2165 26.9775 66.1095C26.9775 64.0035 28.6915 62.2895 30.7985 62.2895C32.9055 62.2895 34.6195 64.0035 34.6195 66.1095C34.6195 68.2165 32.9055 69.9305 30.7985 69.9305Z" fill="#3F523C"/>
    <path d="M73.0256 59.2885C69.2646 59.2885 66.2056 62.3485 66.2056 66.1085C66.2056 69.8705 69.2656 72.9295 73.0256 72.9295C76.7876 72.9295 79.8466 69.8695 79.8466 66.1085C79.8466 62.3485 76.7876 59.2885 73.0256 59.2885ZM73.0256 69.9305C70.9196 69.9305 69.2056 68.2165 69.2056 66.1095C69.2056 64.0035 70.9196 62.2895 73.0256 62.2895C75.1326 62.2895 76.8466 64.0035 76.8466 66.1095C76.8466 68.2165 75.1336 69.9305 73.0256 69.9305Z" fill="#3F523C"/>
</svg>
