<svg width="100" height="101" viewBox="0 0 100 101" fill="none" xmlns="http://www.w3.org/2000/svg">
    <path d="M93.796 36.518L50.769 10.777C50.294 10.493 49.702 10.493 49.228 10.777L6.20501 36.518C5.49401 36.943 5.26302 37.864 5.68802 38.575C6.11302 39.286 7.03401 39.518 7.74501 39.092L49.998 13.812L92.255 39.092C92.496 39.237 92.762 39.305 93.025 39.305C93.535 39.305 94.032 39.045 94.313 38.575C94.738 37.864 94.507 36.943 93.796 36.518Z" fill="#3F523C"/>
    <path d="M82.3171 60.682H67.9671L58.6951 44.122C58.4301 43.648 57.9291 43.355 57.3861 43.355H33.8711C33.4851 43.355 33.1131 43.504 32.8341 43.772L14.7281 61.098C14.4321 61.381 14.2651 61.773 14.2651 62.182V81.555C14.2651 82.383 14.9361 83.055 15.7651 83.055H26.0211C26.7361 87.238 30.3801 90.436 34.7651 90.436C39.1501 90.436 42.7931 87.238 43.5081 83.055H60.2461C60.9611 87.238 64.6051 90.436 68.9891 90.436C73.3731 90.436 77.0171 87.238 77.7321 83.055H86.2841C87.1121 83.055 87.7841 82.383 87.7841 81.555V66.18C87.7861 63.045 85.4361 60.682 82.3171 60.682ZM34.7651 87.436C31.5221 87.436 28.8851 84.798 28.8851 81.557C28.8851 78.314 31.5231 75.676 34.7651 75.676C38.0071 75.676 40.6451 78.314 40.6451 81.557C40.6451 84.798 38.0071 87.436 34.7651 87.436ZM68.9901 87.436C65.7501 87.436 63.1131 84.801 63.1101 81.562C63.1101 81.56 63.1111 81.557 63.1111 81.555C63.1111 81.553 63.1101 81.551 63.1101 81.549C63.1141 78.309 65.7501 75.676 68.9901 75.676C72.2321 75.676 74.8701 78.314 74.8701 81.557C74.8701 84.798 72.2321 87.436 68.9901 87.436ZM84.7861 80.055H77.7331C77.0161 75.873 73.3741 72.676 68.9901 72.676C64.6061 72.676 60.9641 75.873 60.2471 80.055H43.5081C42.7911 75.873 39.1491 72.676 34.7651 72.676C30.3811 72.676 26.7391 75.873 26.0221 80.055H17.2651V62.822L34.4731 46.355H56.5081L65.7801 62.914C66.0451 63.389 66.5461 63.682 67.0891 63.682H82.3181C83.7711 63.682 84.7871 64.709 84.7871 66.18V80.055H84.7861Z" fill="#3F523C"/>
</svg>
