<svg width="102" height="101" viewBox="0 0 102 101" fill="none" xmlns="http://www.w3.org/2000/svg">
    <path d="M93.1684 44.449L51.3534 8.71402C50.7884 8.23102 49.9534 8.23402 49.3944 8.72202L8.46937 44.329C7.84437 44.873 7.77837 45.82 8.32237 46.445C8.86637 47.07 9.81437 47.135 10.4384 46.592L19.2564 38.92V86.792C19.2564 87.62 19.9274 88.292 20.7564 88.292H79.3614C80.1894 88.292 80.8614 87.62 80.8614 86.792V37.878L91.2184 46.729C91.5014 46.971 91.8474 47.089 92.1924 47.089C92.6164 47.089 93.0374 46.911 93.3344 46.564C93.8724 45.934 93.7984 44.987 93.1684 44.449ZM77.8614 85.293H22.2564V36.31L50.3874 11.834L77.8614 35.314V85.293Z" fill="#3F523C"/>
    <path d="M34.2734 41.65V70.43C34.2734 71.258 34.9444 71.93 35.7734 71.93H64.5514C65.3794 71.93 66.0514 71.258 66.0514 70.43V41.65C66.0514 40.821 65.3794 40.15 64.5514 40.15H35.7734C34.9454 40.15 34.2734 40.821 34.2734 41.65ZM51.7724 68.93V57.541H63.0514V68.93H51.7724ZM63.0524 54.541H51.7724V43.15H63.0514V54.541H63.0524ZM37.2734 43.15H48.7724V55.485C48.7034 55.657 48.6634 55.844 48.6634 56.041C48.6634 56.238 48.7034 56.425 48.7724 56.597V68.929H37.2734V43.15Z" fill="#3F523C"/>
</svg>
