<svg width="102" height="101" viewBox="0 0 102 101" fill="none" xmlns="http://www.w3.org/2000/svg">
    <path d="M70.3733 59.227C70.3683 59.227 70.3623 59.227 70.3573 59.227C69.8343 59.221 69.3523 58.944 69.0843 58.495L54.8263 34.55C54.7863 34.483 54.7523 34.414 54.7233 34.342C52.9453 31.423 52.0073 28.078 52.0073 24.649C52.0253 14.338 60.4213 5.95996 70.7273 5.95996C70.7353 5.95996 70.7423 5.95996 70.7503 5.95996C75.7533 5.96696 80.4503 7.92096 83.9763 11.461C87.5003 14.998 89.4363 19.7 89.4293 24.699C89.4293 28.077 88.4953 31.404 86.7253 34.341C86.6913 34.437 86.6463 34.529 86.5913 34.618L71.6463 58.523C71.3703 58.96 70.8893 59.227 70.3733 59.227ZM57.5423 33.247L70.4043 54.848L83.8803 33.293C83.9143 33.201 83.9573 33.111 84.0103 33.026C85.5923 30.499 86.4283 27.619 86.4283 24.698C86.4283 24.697 86.4283 24.697 86.4283 24.696C86.4353 20.496 84.8093 16.548 81.8503 13.577C78.8903 10.606 74.9463 8.96596 70.7463 8.95896C70.7403 8.95896 70.7333 8.95896 70.7263 8.95896C62.0713 8.95896 55.0213 15.994 55.0073 24.651C55.0073 27.605 55.8383 30.487 57.4093 32.983C57.4633 33.066 57.5073 33.155 57.5423 33.247Z" fill="#3F523C"/>
    <path d="M70.7322 31.6759C70.7272 31.6759 70.7222 31.6759 70.7162 31.6759C68.6042 31.6759 66.6152 30.8509 65.1202 29.3529C63.6232 27.8529 62.8012 25.8609 62.8052 23.7419C62.8072 21.6299 63.6332 19.6429 65.1312 18.1489C66.6272 16.6579 68.6132 15.8369 70.7262 15.8369C70.7282 15.8369 70.7312 15.8369 70.7342 15.8369C75.0992 15.8419 78.6482 19.3999 78.6442 23.7689C78.6422 25.8839 77.8162 27.8719 76.3182 29.3659C74.8232 30.8559 72.8402 31.6759 70.7322 31.6759ZM70.7252 18.8369C69.4132 18.8369 68.1782 19.3469 67.2492 20.2739C66.3192 21.2009 65.8062 22.4349 65.8052 23.7469C65.8032 25.0639 66.3142 26.3019 67.2442 27.2339C68.1722 28.1639 69.4072 28.6759 70.7192 28.6759C70.7222 28.6759 70.7252 28.6759 70.7292 28.6759C72.0412 28.6759 73.2722 28.1669 74.2002 27.2419C75.1302 26.3149 75.6432 25.0799 75.6442 23.7669C75.6462 21.0529 73.4422 18.8409 70.7302 18.8379C70.7292 18.8369 70.7272 18.8369 70.7252 18.8369ZM77.1442 23.7679H77.1542H77.1442Z" fill="#3F523C"/>
    <path d="M95.2224 80.505H5.3644C4.8604 80.505 4.3904 80.252 4.1124 79.831C3.8354 79.411 3.7874 78.879 3.9854 78.415L20.3304 40.173C20.5664 39.621 21.1094 39.262 21.7094 39.262H60.2774C61.1064 39.262 61.7774 39.933 61.7774 40.762C61.7774 41.591 61.1064 42.262 60.2774 42.262H22.6994L7.6364 77.504H92.9494L78.3514 43.354C78.0254 42.592 78.3794 41.711 79.1414 41.385C79.9004 41.06 80.7844 41.412 81.1104 42.175L96.6014 78.414C96.7994 78.878 96.7514 79.41 96.4744 79.83C96.1964 80.252 95.7264 80.505 95.2224 80.505Z" fill="#3F523C"/>
    <path d="M70.5504 80.236C69.7984 80.236 69.1494 79.672 69.0624 78.906C69.0534 78.832 68.0954 71.452 57.7624 69.699C56.8014 69.536 55.2684 69.387 53.4924 69.216C43.7134 68.27 34.7934 67.042 33.0734 62.469C31.9634 59.519 33.5854 57.27 34.8874 55.463C36.3134 53.485 36.7834 52.621 36.0554 51.38C35.5944 50.594 34.1264 49.954 32.7064 49.335C29.9264 48.123 26.1184 46.463 26.0984 41.913C26.0944 41.084 26.7634 40.41 27.5914 40.406C27.5934 40.406 27.5964 40.406 27.5984 40.406C28.4244 40.406 29.0944 41.073 29.0984 41.899C29.1094 44.319 30.9224 45.284 33.9064 46.585C35.7664 47.396 37.6894 48.234 38.6444 49.863C40.4294 52.907 38.6334 55.399 37.3224 57.218C36.0924 58.924 35.3644 60.039 35.8824 61.413C37.0874 64.616 48.3634 65.706 53.7824 66.231C55.6154 66.408 57.1984 66.561 58.2644 66.742C70.7964 68.869 71.9984 78.172 72.0434 78.567C72.1374 79.39 71.5464 80.133 70.7234 80.227C70.6654 80.233 70.6074 80.236 70.5504 80.236Z" fill="#3F523C"/>
</svg>
