<svg width="21.212891" height="14.000031" viewBox="0 0 21.2129 14" fill="none" xmlns="http://www.w3.org/2000/svg">
    <defs/>
    <path id="Vector" d="M8.74 1.71C10.49 1.71 11.91 3.13 11.91 4.88C11.91 6.63 10.49 8.05 8.74 8.05C6.99 8.05 5.57 6.63 5.57 4.88C5.57 3.13 6.99 1.71 8.74 1.71ZM8.74 7.35C10.1 7.35 11.2 6.24 11.2 4.88C11.2 3.52 10.1 2.42 8.74 2.42C7.38 2.42 6.27 3.52 6.27 4.88C6.27 6.24 7.38 7.35 8.74 7.35Z" fill="#000000" fill-opacity="1.000000" fill-rule="nonzero"/>
    <path id="Vector" d="M2.09 1.71C2.28 1.71 2.44 1.87 2.44 2.06L2.44 7.7C2.44 7.9 2.28 8.05 2.09 8.05C1.89 8.05 1.74 7.9 1.74 7.7L1.74 2.06C1.74 1.87 1.89 1.71 2.09 1.71Z" fill="#000000" fill-opacity="1.000000" fill-rule="nonzero"/>
    <path id="Vector" d="M15.28 1.71C15.47 1.71 15.63 1.87 15.63 2.06L15.63 7.7C15.63 7.9 15.47 8.05 15.28 8.05C15.08 8.05 14.92 7.9 14.92 7.7L14.92 2.06C14.92 1.87 15.08 1.71 15.28 1.71Z" fill="#000000" fill-opacity="1.000000" fill-rule="nonzero"/>
    <path id="Vector" d="M20.85 14L4.23 14C4.04 14 3.88 13.84 3.88 13.64L3.88 11.98L2.37 11.98C2.18 11.98 2.02 11.82 2.02 11.62L2.02 9.77L0.35 9.77C0.15 9.77 0 9.61 0 9.42L0 0.35C0 0.15 0.15 0 0.35 0L16.97 0C17.17 0 17.33 0.15 17.33 0.35L17.33 2.2L18.99 2.2C19.19 2.2 19.35 2.36 19.35 2.56L19.35 4.22L20.85 4.22C21.05 4.22 21.21 4.38 21.21 4.58L21.21 13.64C21.21 13.84 21.05 14 20.85 14ZM16.62 0.7L0.7 0.7L0.7 9.06L16.62 9.06L16.62 0.7ZM18.64 2.91L17.33 2.91L17.33 9.42C17.33 9.61 17.17 9.77 16.97 9.77L2.73 9.77L2.73 11.27L18.64 11.27L18.64 2.91L18.64 2.91ZM20.5 4.93L19.35 4.93L19.35 11.62C19.35 11.82 19.19 11.98 18.99 11.98L4.59 11.98L4.59 13.29L20.5 13.29L20.5 4.93Z" fill="#000000" fill-opacity="1.000000" fill-rule="nonzero"/>
</svg>
