<svg width="16.000000" height="16.000000" viewBox="0 0 16 16" fill="none" xmlns="http://www.w3.org/2000/svg">
    <defs/>
    <path id="?" d="M7.41 9.08Q7.28 9.39 7.28 9.79L8.27 9.79Q8.27 9.39 8.46 9.11Q8.46 9.1 8.47 9.09Q8.66 8.81 9.07 8.45Q9.39 8.15 9.58 7.94Q9.78 7.73 9.91 7.42Q10.04 7.1 10.04 6.69Q10.04 6.24 9.85 5.89Q9.69 5.6 9.4 5.39Q8.76 4.91 7.68 4.91Q6.81 4.91 6.16 5.21Q5.71 5.41 5.37 5.73Q5.21 5.87 5.09 6.04L5.82 6.56Q6.01 6.31 6.25 6.14Q6.79 5.76 7.6 5.76Q8.27 5.76 8.65 6.06Q8.84 6.2 8.93 6.39Q9.04 6.59 9.04 6.85Q9.04 7.13 8.92 7.35Q8.89 7.41 8.85 7.46Q8.65 7.72 8.25 8.06Q7.93 8.35 7.74 8.56Q7.54 8.77 7.41 9.08ZM7.48 11.99Q7.61 12.06 7.79 12.06Q7.93 12.06 8.05 12Q8.15 11.96 8.24 11.87Q8.32 11.79 8.37 11.69Q8.43 11.56 8.43 11.41Q8.43 11.26 8.37 11.14Q8.32 11.04 8.24 10.96Q8.18 10.89 8.09 10.85Q7.96 10.77 7.79 10.77Q7.61 10.77 7.48 10.84Q7.39 10.89 7.32 10.96Q7.24 11.04 7.19 11.14Q7.14 11.27 7.14 11.41Q7.14 11.57 7.2 11.69Q7.24 11.79 7.32 11.87Q7.39 11.94 7.48 11.99Z" fill="#3F523C" fill-opacity="1.000000" fill-rule="evenodd"/>
    <rect id="Frame 1016" rx="7.500000" width="15.000000" height="15.000000" transform="translate(0.500000 0.500000)" stroke="#3F523C" stroke-opacity="1.000000" stroke-width="1.000000"/>
</svg>
