<svg width="16" height="16" viewBox="0 0 17 17" fill="none" xmlns="http://www.w3.org/2000/svg">
    <path fill-rule="evenodd" clip-rule="evenodd"
          d="M7.70898 0.583374C11.644 0.583374 14.834 3.77334 14.834 7.70837C14.834 9.39049 14.2511 10.9365 13.2762 12.1553L16.1854 15.0652C16.4946 15.3744 16.4946 15.8757 16.1854 16.1848C15.9001 16.4702 15.451 16.4922 15.1404 16.2507L15.0659 16.1848L12.1559 13.2756C10.9371 14.2505 9.3911 14.8334 7.70898 14.8334C3.77396 14.8334 0.583984 11.6434 0.583984 7.70837C0.583984 3.77334 3.77396 0.583374 7.70898 0.583374ZM7.70898 2.16671C4.64841 2.16671 2.16732 4.6478 2.16732 7.70837C2.16732 10.769 4.64841 13.25 7.70898 13.25C10.7696 13.25 13.2507 10.769 13.2507 7.70837C13.2507 4.6478 10.7696 2.16671 7.70898 2.16671Z"
          fill="#A5A5A5"/>
</svg>
