<svg width="24.000000" height="24.000000" viewBox="0 0 24 24" fill="none" xmlns="http://www.w3.org/2000/svg" xmlns:xlink="http://www.w3.org/1999/xlink">
    <desc>
        Created with Pixso.
    </desc>
    <defs/>
    <rect id="vuesax/outline/eye-slash" rx="-0.500000" width="23.000000" height="23.000000" transform="translate(0.500000 0.500000)" fill="#FFFFFF" fill-opacity="0"/>
    <path id="Vector" d="M9.46 15.28C9.28 15.28 9.08 15.21 8.93 15.06C8.11 14.24 7.66 13.15 7.66 12C7.66 9.6 9.6 7.66 12 7.66C13.14 7.66 14.24 8.12 15.05 8.93C15.2 9.07 15.28 9.26 15.28 9.46C15.28 9.66 15.2 9.85 15.05 10L10 15.06C9.84 15.21 9.65 15.28 9.46 15.28ZM12 9.16C10.43 9.16 9.16 10.44 9.16 12C9.16 12.5 9.29 12.98 9.54 13.4L13.39 9.53C12.98 9.29 12.5 9.16 12 9.16Z" fill="#292D32" fill-opacity="1.000000" fill-rule="nonzero"/>
    <path id="Vector" d="M5.6 18.51C5.43 18.51 5.25 18.45 5.11 18.33C4.04 17.42 3.08 16.29 2.26 15C1.2 13.35 1.2 10.66 2.26 9C4.7 5.17 8.25 2.97 12 2.97C14.2 2.97 16.37 3.73 18.27 5.16C18.6 5.41 18.67 5.88 18.42 6.21C18.17 6.54 17.7 6.62 17.37 6.37C15.73 5.13 13.87 4.47 12 4.47C8.77 4.47 5.68 6.41 3.52 9.81C2.77 10.98 2.77 13.02 3.52 14.19C4.27 15.36 5.13 16.37 6.08 17.19C6.39 17.45 6.43 17.93 6.16 18.25C6.02 18.42 5.81 18.51 5.6 18.51Z" fill="#292D32" fill-opacity="1.000000" fill-rule="nonzero"/>
    <path id="Vector" d="M12 21.02C10.67 21.02 9.37 20.75 8.12 20.21C7.73 20.06 7.56 19.62 7.71 19.24C7.88 18.86 8.32 18.68 8.69 18.84C9.76 19.29 10.87 19.52 11.99 19.52C15.22 19.52 18.31 17.58 20.46 14.19C21.22 13.02 21.22 10.98 20.46 9.81C20.16 9.32 19.82 8.84 19.45 8.4C19.2 8.09 19.25 7.62 19.57 7.34C19.89 7.09 20.36 7.13 20.63 7.46C21.02 7.94 21.4 8.46 21.74 9C22.8 10.65 22.8 13.34 21.74 15C19.29 18.82 15.75 21.02 12 21.02Z" fill="#292D32" fill-opacity="1.000000" fill-rule="nonzero"/>
    <path id="Vector" d="M12.69 16.27C12.34 16.27 12.02 16.02 11.95 15.66C11.87 15.25 12.14 14.86 12.55 14.79C13.65 14.59 14.57 13.67 14.77 12.57C14.85 12.16 15.24 11.9 15.65 11.97C16.06 12.05 16.33 12.44 16.25 12.85C15.93 14.58 14.55 15.95 12.83 16.27C12.78 16.26 12.74 16.27 12.69 16.27Z" fill="#292D32" fill-opacity="1.000000" fill-rule="nonzero"/>
    <path id="Vector" d="M2 22.75C1.81 22.75 1.61 22.68 1.46 22.53C1.17 22.24 1.17 21.75 1.46 21.47L8.93 14C9.22 13.71 9.7 13.71 10 14C10.29 14.29 10.29 14.77 10 15.06L2.53 22.53C2.37 22.68 2.18 22.75 2 22.75Z" fill="#292D32" fill-opacity="1.000000" fill-rule="nonzero"/>
    <path id="Vector" d="M14.53 10.22C14.34 10.22 14.14 10.14 14 10C13.71 9.71 13.71 9.22 14 8.93L21.47 1.47C21.76 1.17 22.24 1.17 22.53 1.47C22.82 1.76 22.82 2.23 22.53 2.53L15.06 10C14.9 10.14 14.72 10.22 14.53 10.22Z" fill="#292D32" fill-opacity="1.000000" fill-rule="nonzero"/>
    <g opacity="0.000000"/>
</svg>
