<svg width="24.000000" height="24.000000" viewBox="0 0 24 24" fill="none" xmlns="http://www.w3.org/2000/svg" xmlns:xlink="http://www.w3.org/1999/xlink">
    <desc>
        Created with Pixso.
    </desc>
    <defs/>
    <rect id="vuesax/outline/eye" rx="-0.500000" width="23.000000" height="23.000000" transform="translate(0.500000 0.500000)" fill="#FFFFFF" fill-opacity="0"/>
    <path id="Vector" d="M12 16.33C9.6 16.33 7.66 14.39 7.66 12C7.66 9.6 9.6 7.66 12 7.66C14.38 7.66 16.32 9.6 16.32 12C16.32 14.39 14.38 16.33 12 16.33ZM12 9.16C10.43 9.16 9.16 10.44 9.16 12C9.16 13.56 10.43 14.83 12 14.83C13.55 14.83 14.82 13.56 14.82 12C14.82 10.44 13.55 9.16 12 9.16Z" fill="#292D32" fill-opacity="1.000000" fill-rule="nonzero"/>
    <path id="Vector" d="M12 21.02C8.23 21.02 4.69 18.82 2.25 15C1.19 13.35 1.19 10.66 2.25 9C4.7 5.17 8.25 2.97 12 2.97C15.75 2.97 19.29 5.17 21.74 9C22.8 10.65 22.8 13.34 21.74 15C19.29 18.82 15.75 21.02 12 21.02ZM12 4.47C8.77 4.47 5.68 6.41 3.52 9.81C2.77 10.98 2.77 13.02 3.52 14.19C5.68 17.58 8.77 19.52 12 19.52C15.23 19.52 18.32 17.58 20.48 14.19C21.23 13.02 21.23 10.98 20.48 9.81C18.32 6.41 15.23 4.47 12 4.47Z" fill="#292D32" fill-opacity="1.000000" fill-rule="nonzero"/>
    <g opacity="0.000000"/>
</svg>
